<?xml version="1.0" standalone="no"?><!DOCTYPE svg PUBLIC "-//W3C//DTD SVG 1.1//EN" "http://www.w3.org/Graphics/SVG/1.1/DTD/svg11.dtd"><svg class="icon" width="16px" height="16.00px" viewBox="0 0 1024 1024" version="1.1" xmlns="http://www.w3.org/2000/svg"><path d="M512 8.258065C790.214194 8.258065 1015.741935 233.785806 1015.741935 512 1015.411613 790.082065 790.082065 1015.411613 512 1015.741935 233.785806 1015.741935 8.258065 790.214194 8.258065 512S233.785806 8.258065 512 8.258065z m0 16.516129C242.919226 24.774194 24.774194 242.919226 24.774194 512S242.919226 999.225806 512 999.225806c268.965161-0.313806 486.912-218.260645 487.225806-487.225806C999.225806 242.919226 781.080774 24.774194 512 24.774194z" fill="#2c2c2c" /><path d="M512 115.612903c218.92129 0 396.387097 177.465806 396.387097 396.387097S730.92129 908.387097 512 908.387097 115.612903 730.92129 115.612903 512 293.07871 115.612903 512 115.612903zM282.260645 347.614968v315.458064a13.312 13.312 0 0 0 14.649807 13.179871c0.264258-0.033032 29.39871-2.972903 67.550967-2.972903 39.027613 0 93.778581 3.154581 133.004387 18.068645a13.245935 13.245935 0 0 0 4.707097 0.875355c2.114065 0 4.079484-0.660645 5.912774-1.569032 3.88129 1.502968 7.762581 3.088516 11.660388 4.789677 1.420387 0.644129 2.939871 0.957935 4.525419 0.957936 1.981935 0 3.864774-0.693677 5.615484-1.684646a11.313548 11.313548 0 0 0 5.615484 1.684646 11.065806 11.065806 0 0 0 4.508903-0.957936 305.548387 305.548387 0 0 1 11.693419-4.789677c1.816774 0.924903 3.782194 1.569032 5.896258 1.569032a13.245935 13.245935 0 0 0 4.707097-0.875355c39.20929-14.914065 93.976774-18.052129 133.004387-18.052129 38.152258 0 67.28671 2.923355 67.600516 2.972903 3.79871 0.330323 7.46529-0.891871 10.24-3.352774a13.328516 13.328516 0 0 0 4.376774-9.860129v-315.458064a13.295484 13.295484 0 0 0-26.557935 0v301.039483c-8.951742-0.660645-20.810323-1.32129-34.568258-1.684645V330.074839c0-6.837677-4.657548-12.519226-10.900645-13.212904-9.827097-1.073548-19.885419-1.651613-29.844645-1.651612-81.556645 0-138.851097 36.104258-145.804388 40.712258-6.969806-4.624516-64.247742-40.695742-145.78787-40.695742-9.992258 0-20.050581 0.561548-29.894194 1.651613-6.177032 0.677161-10.851097 6.35871-10.851097 13.196387V646.936774c-13.774452 0.379871-25.616516 1.040516-34.60129 1.684645V347.614968a13.163355 13.163355 0 0 0-13.179871-13.262452 13.278968 13.278968 0 0 0-13.278968 13.262452z m265.381161 27.879226c15.723355-9.083871 64.429419-33.725935 128.049549-33.725936 5.516387 0 11.065806 0.181677 16.565677 0.545032V642.807742a325.433806 325.433806 0 0 0-20.034064-0.594581c-30.389677 0-76.271484 3.848258-124.581162 21.867355V375.494194z m-180.091871-33.19742a248.402581 248.402581 0 0 1 16.549162-0.528516c63.653161 0 112.34271 24.675097 128.08258 33.725936v288.569806c-48.309677-18.002581-94.208-21.850839-124.597677-21.850839-6.936774 0-13.642323 0.181677-20.017548 0.578065V342.31329z" fill="#2c2c2c" /></svg>